<svg viewBox="0 0 922 421" fill="none" xmlns="http://www.w3.org/2000/svg">
<path d="M922 50C922 22.3858 899.614 0 872 0H50C22.3857 0 0 22.3858 0 50V288.02C0 313.805 19.6072 335.361 45.2761 337.797L867.276 415.807C896.625 418.592 922 395.511 922 366.03V50Z" fill="#000000"/>
<path d="M0 50C0 22.3858 22.3858 0 50 0H872C899.614 0 922 22.3858 922 50V288.02C922 313.805 902.393 335.361 876.724 337.797L54.7239 415.807C25.3753 418.592 0 395.511 0 366.03V50Z" fill="#000000"/>
<defs>
<linearGradient id="paint0_linear_253_646" x1="9.50001" y1="-2.65782e-05" x2="938.143" y2="226.921" gradientUnits="userSpaceOnUse">
<stop stop-color="#000001"/>
<stop offset="0.993631" stop-color="#000002"/>
</linearGradient>
<linearGradient id="paint1_linear_253_646" x1="7.30382e-06" y1="26.6347" x2="863.704" y2="514.001" gradientUnits="userSpaceOnUse">
<stop stop-color="#000001"/>
<stop offset="1" stop-color="#000002"/>
</linearGradient>
</defs>
</svg>
