<svg width="180" height="250" viewBox="0 0 180 250" fill="none" xmlns="http://www.w3.org/2000/svg">
<path d="M0 90C0 10.8 10.8 0 90 0C169.2 0 180 10.8 180 90C180 169.2 169.2 180 90 180C10.8 180 0 169.2 0 90Z" fill="#FFF2ED"/>
<path d="M95.0794 73.6108C76.0166 78.8378 62.0098 88.7064 53.3436 102.608C44.6774 116.51 53.0084 125.571 66.9203 124.398C80.8323 123.225 104.131 115.347 118.043 104.955C131.954 94.5628 131.284 87.1877 128.937 81.824C126.591 76.4604 115.864 67.9118 95.0794 73.6108Z" fill="#FAB13D"/>
<path fill-rule="evenodd" clip-rule="evenodd" d="M51.6465 101.55C60.6248 87.1478 75.0935 77.0171 94.5507 71.6819C115.987 65.8042 127.91 74.4859 130.77 81.0224C132.062 83.9768 132.972 87.6964 131.483 92.1394C130.023 96.496 126.357 101.241 119.24 106.557C112.078 111.907 102.584 116.555 93.1708 120.011C83.7602 123.466 74.2765 125.785 67.0885 126.391C59.7632 127.009 53.3461 124.978 50.0346 120.314C46.644 115.539 47.086 108.866 51.6465 101.55ZM53.3437 102.608C62.01 88.7064 76.0167 78.8378 95.0795 73.6108C115.864 67.9117 126.591 76.4604 128.937 81.824C131.284 87.1877 131.955 94.5628 118.043 104.955C104.131 115.347 80.8324 123.225 66.9204 124.398C53.0085 125.571 44.6775 116.51 53.3437 102.608Z" fill="#B7690D"/>
<path d="M68.2998 89.5913C60.4688 94.3837 55.4928 100.594 53.4201 107.916C51.3474 115.237 56.234 118.205 62.2899 115.886C68.3458 113.567 69.7436 106.468 74.6098 100.036C79.476 93.6037 84.7399 91.1648 84.7399 87.6379C84.7399 84.9164 76.8379 84.3663 68.2998 89.5913Z" fill="#FCC66F"/>
<path fill-rule="evenodd" clip-rule="evenodd" d="M65.343 96.7055C66.1615 97.4473 66.2237 98.7121 65.482 99.5306C62.4635 102.861 61.1684 105.727 60.1697 107.936C60.0479 108.206 59.9305 108.466 59.8149 108.715C59.3509 109.718 58.1621 110.154 57.1597 109.69C56.1574 109.226 55.721 108.037 56.1851 107.035C56.2926 106.802 56.405 106.553 56.5245 106.288C57.5377 104.04 59.062 100.658 62.518 96.8445C63.2598 96.026 64.5246 95.9638 65.343 96.7055Z" fill="#FFDFAD"/>
<path fill-rule="evenodd" clip-rule="evenodd" d="M59.7822 124.019C75.1366 120.935 95.2702 113.233 108.174 103.594C123.71 91.9882 122.962 83.7517 120.341 77.7615C119.668 76.224 118.379 74.452 116.441 72.775C123.538 74.6729 127.599 78.7661 128.937 81.824C131.284 87.1877 131.954 94.5628 118.042 104.955C104.131 115.347 80.8322 123.225 66.9202 124.398C64.3213 124.617 61.9172 124.479 59.7822 124.019Z" fill="#EDA024"/>
<path d="M80.3294 105.625C76.5748 98.25 65.4676 94.3949 60.3833 93.3892C62.2606 90.3051 66.0822 87.7462 67.7583 86.8523C75.9379 91.9478 79.5472 101.491 80.3294 105.625Z" fill="#D08814"/>
<path d="M97.2136 98.9775C92.8289 88.9987 82.7181 81.235 77.6338 80.2293C80.8845 77.5078 87.2217 76.0582 88.8978 75.1643C98.2719 80.2293 96.4314 94.8431 97.2136 98.9775Z" fill="#A56112"/>
<path d="M113.694 87.4868C109.612 77.2811 104.641 75.1394 100.263 72.3652C102.581 71.3845 108.557 71.6126 110.443 71.3845C114.374 76.8274 114.374 81.2122 113.694 87.4868Z" fill="#9C5807"/>
<path fill-rule="evenodd" clip-rule="evenodd" d="M66.9797 86.9357C67.0962 86.3958 67.6282 86.0525 68.1681 86.169C70.3848 86.6471 73.1985 88.4504 75.7801 91.4614C78.3845 94.4991 80.8169 98.8362 82.2327 104.519C82.3663 105.055 82.0401 105.598 81.5042 105.731C80.9683 105.865 80.4256 105.538 80.2921 105.002C78.9486 99.6103 76.6562 95.556 74.2617 92.7632C71.8444 89.9438 69.3852 88.4775 67.7464 88.124C67.2065 88.0076 66.8633 87.4755 66.9797 86.9357Z" fill="#FFDFAC"/>
<path fill-rule="evenodd" clip-rule="evenodd" d="M89.4355 74.9741C89.7493 74.5197 90.3721 74.4056 90.8266 74.7194C92.6442 75.9744 94.7234 78.8263 96.3436 82.7899C97.9801 86.7935 99.1961 92.0437 99.1961 98.2216C99.1961 98.7739 98.7484 99.2216 98.1961 99.2216C97.6439 99.2216 97.1961 98.7739 97.1961 98.2216C97.1961 92.3038 96.0308 87.3106 94.4923 83.5466C92.9373 79.7425 91.0477 77.3025 89.6902 76.3652C89.2357 76.0514 89.1217 75.4286 89.4355 74.9741Z" fill="#FFDFAC"/>
<path fill-rule="evenodd" clip-rule="evenodd" d="M110.427 71.2411C110.777 70.8143 111.407 70.7525 111.834 71.1031C113.654 72.5977 114.941 75.1378 115.63 77.9914C116.324 80.8686 116.443 84.1903 115.809 87.3793C115.701 87.921 115.175 88.2728 114.633 88.1651C114.091 88.0575 113.739 87.5311 113.847 86.9894C114.423 84.0928 114.314 81.0643 113.686 78.4607C113.052 75.8335 111.92 73.762 110.565 72.6485C110.138 72.298 110.076 71.6678 110.427 71.2411Z" fill="#FFDFAC"/>
<path d="M113.442 100.536C113.185 101.584 112.349 102.28 111.576 102.09C110.802 101.901 110.383 100.897 110.64 99.849C110.897 98.8006 111.732 98.1045 112.506 98.2941C113.28 98.4837 113.699 99.4873 113.442 100.536Z" fill="#D48A15"/>
<path d="M106.52 103.169C106.311 104.02 105.633 104.586 105.004 104.432C104.375 104.278 104.035 103.463 104.244 102.611C104.452 101.759 105.131 101.194 105.76 101.348C106.388 101.502 106.729 102.317 106.52 103.169Z" fill="#D48A15"/>
<path d="M111.472 105.739C111.263 106.591 110.584 107.156 109.956 107.002C109.327 106.848 108.987 106.033 109.195 105.181C109.404 104.33 110.083 103.764 110.711 103.918C111.34 104.072 111.68 104.888 111.472 105.739Z" fill="#D48A15"/>
<path d="M109.706 96.217C109.497 97.0685 108.819 97.634 108.19 97.48C107.561 97.326 107.221 96.5108 107.43 95.6592C107.638 94.8076 108.317 94.2421 108.946 94.3961C109.574 94.5502 109.915 95.3654 109.706 96.217Z" fill="#D48A15"/>
<path d="M118.315 98.3924C118.107 99.244 117.428 99.8095 116.799 99.6555C116.171 99.5014 115.83 98.6862 116.039 97.8347C116.248 96.9831 116.927 96.4176 117.555 96.5716C118.184 96.7256 118.524 97.5408 118.315 98.3924Z" fill="#D48A15"/>
<path d="M115.876 94.9074C115.641 95.8677 114.875 96.5054 114.167 96.3317C113.458 96.158 113.074 95.2387 113.309 94.2784C113.545 93.318 114.31 92.6804 115.019 92.8541C115.728 93.0277 116.111 93.947 115.876 94.9074Z" fill="#D48A15"/>
<path d="M123.587 95.4623C123.352 96.4226 122.586 97.0603 121.878 96.8866C121.169 96.7129 120.785 95.7936 121.02 94.8333C121.256 93.873 122.021 93.2353 122.73 93.409C123.439 93.5827 123.822 94.502 123.587 95.4623Z" fill="#D48A15"/>
<path d="M121.686 91.3557C121.451 92.316 120.685 92.9537 119.977 92.78C119.268 92.6063 118.884 91.687 119.119 90.7267C119.355 89.7664 120.12 89.1287 120.829 89.3024C121.538 89.476 121.921 90.3954 121.686 91.3557Z" fill="#D48A15"/>
<path d="M128.339 90.7037C128.104 91.664 127.338 92.3017 126.629 92.128C125.921 91.9543 125.537 91.035 125.772 90.0747C126.007 89.1144 126.773 88.4767 127.482 88.6504C128.19 88.8241 128.574 89.7434 128.339 90.7037Z" fill="#D48A15"/>
<path d="M121.434 99.6631C121.28 100.292 120.779 100.709 120.315 100.595C119.852 100.482 119.6 99.8799 119.754 99.2515C119.908 98.623 120.409 98.2057 120.873 98.3193C121.337 98.433 121.588 99.0346 121.434 99.6631Z" fill="#D48A15"/>
<path d="M116.218 103.594C116.064 104.223 115.563 104.64 115.099 104.526C114.635 104.413 114.384 103.811 114.538 103.183C114.692 102.554 115.193 102.137 115.657 102.25C116.121 102.364 116.372 102.966 116.218 103.594Z" fill="#D48A15"/>
<path d="M101.892 111.267C101.738 111.896 101.237 112.313 100.773 112.199C100.31 112.086 100.058 111.484 100.212 110.856C100.366 110.227 100.867 109.81 101.331 109.924C101.795 110.037 102.046 110.639 101.892 111.267Z" fill="#D48A15"/>
<path d="M107.331 107.487C107.177 108.115 106.676 108.533 106.212 108.419C105.748 108.305 105.497 107.704 105.651 107.075C105.805 106.447 106.306 106.03 106.77 106.143C107.233 106.257 107.485 106.858 107.331 107.487Z" fill="#D48A15"/>
<path d="M103.31 106.72C103.185 107.231 102.778 107.571 102.4 107.478C102.023 107.386 101.819 106.897 101.944 106.386C102.069 105.875 102.477 105.535 102.854 105.628C103.231 105.72 103.435 106.209 103.31 106.72Z" fill="#D48A15"/>
<path d="M105.093 98.8969C104.939 99.5253 104.438 99.9427 103.975 99.829C103.511 99.7153 103.26 99.1137 103.414 98.4852C103.568 97.8568 104.068 97.4394 104.532 97.5531C104.996 97.6668 105.247 98.2684 105.093 98.8969Z" fill="#D48A15"/>
<path d="M112.88 92.3682C112.726 92.9967 112.226 93.414 111.762 93.3003C111.298 93.1866 111.047 92.585 111.201 91.9565C111.355 91.3281 111.856 90.9108 112.319 91.0244C112.783 91.1381 113.034 91.7397 112.88 92.3682Z" fill="#D48A15"/>
<path d="M118.017 88.2088C117.863 88.8373 117.362 89.2546 116.898 89.1409C116.435 89.0273 116.183 88.4256 116.337 87.7972C116.491 87.1687 116.992 86.7514 117.456 86.8651C117.92 86.9787 118.171 87.5804 118.017 88.2088Z" fill="#D48A15"/>
<path d="M123.734 87.198C123.58 87.8264 123.08 88.2437 122.616 88.1301C122.152 88.0164 121.901 87.4148 122.055 86.7863C122.209 86.1579 122.71 85.7405 123.173 85.8542C123.637 85.9679 123.888 86.5695 123.734 87.198Z" fill="#D48A15"/>
<path d="M127.334 86.7863C127.18 87.4147 126.679 87.8321 126.215 87.7184C125.751 87.6047 125.5 87.0031 125.654 86.3746C125.808 85.7462 126.309 85.3288 126.773 85.4425C127.237 85.5562 127.488 86.1578 127.334 86.7863Z" fill="#D48A15"/>
<path d="M27.6882 238V203.091H39.8928C42.3246 203.091 44.3303 203.511 45.9098 204.352C47.4893 205.182 48.6655 206.301 49.4382 207.71C50.2109 209.108 50.5973 210.659 50.5973 212.364C50.5973 213.864 50.3303 215.102 49.7962 216.08C49.2734 217.057 48.5803 217.83 47.7166 218.398C46.8643 218.966 45.9382 219.386 44.9382 219.659V220C46.0064 220.068 47.0803 220.443 48.1598 221.125C49.2393 221.807 50.1428 222.784 50.87 224.057C51.5973 225.33 51.9609 226.886 51.9609 228.727C51.9609 230.477 51.5632 232.051 50.7678 233.449C49.9723 234.847 48.7166 235.955 47.0007 236.773C45.2848 237.591 43.0518 238 40.3018 238H27.6882ZM31.9155 234.25H40.3018C43.0632 234.25 45.0234 233.716 46.1825 232.648C47.353 231.568 47.9382 230.261 47.9382 228.727C47.9382 227.545 47.6371 226.455 47.0348 225.455C46.4325 224.443 45.5746 223.636 44.4609 223.034C43.3473 222.42 42.0291 222.114 40.5064 222.114H31.9155V234.25ZM31.9155 218.432H39.7564C41.0291 218.432 42.1768 218.182 43.1996 217.682C44.2337 217.182 45.0518 216.477 45.6541 215.568C46.2678 214.659 46.5746 213.591 46.5746 212.364C46.5746 210.83 46.0405 209.528 44.9723 208.46C43.9041 207.381 42.2109 206.841 39.8928 206.841H31.9155V218.432ZM58.3615 238V211.818H62.2479V215.773H62.5206C62.9979 214.477 63.8615 213.426 65.1115 212.619C66.3615 211.812 67.7706 211.409 69.3388 211.409C69.6342 211.409 70.0036 211.415 70.4467 211.426C70.8899 211.437 71.2251 211.455 71.4524 211.477V215.568C71.3161 215.534 71.0036 215.483 70.5149 215.415C70.0376 215.335 69.532 215.295 68.9979 215.295C67.7251 215.295 66.5888 215.562 65.5888 216.097C64.6001 216.619 63.8161 217.347 63.2365 218.278C62.6683 219.199 62.3842 220.25 62.3842 221.432V238H58.3615ZM86.4013 238.545C83.8786 238.545 81.7024 237.989 79.8729 236.875C78.0547 235.75 76.6513 234.182 75.6626 232.17C74.6854 230.148 74.1967 227.795 74.1967 225.114C74.1967 222.432 74.6854 220.068 75.6626 218.023C76.6513 215.966 78.0263 214.364 79.7876 213.216C81.5604 212.057 83.6286 211.477 85.9922 211.477C87.3558 211.477 88.7024 211.705 90.032 212.159C91.3615 212.614 92.5717 213.352 93.6626 214.375C94.7536 215.386 95.6229 216.727 96.2706 218.398C96.9183 220.068 97.2422 222.125 97.2422 224.568V226.273H77.0604V222.795H93.1513C93.1513 221.318 92.8558 220 92.2649 218.841C91.6854 217.682 90.8558 216.767 89.7763 216.097C88.7081 215.426 87.4467 215.091 85.9922 215.091C84.3899 215.091 83.0036 215.489 81.8331 216.284C80.674 217.068 79.782 218.091 79.157 219.352C78.532 220.614 78.2195 221.966 78.2195 223.409V225.727C78.2195 227.705 78.5604 229.381 79.2422 230.756C79.9354 232.119 80.8956 233.159 82.1229 233.875C83.3501 234.58 84.7763 234.932 86.4013 234.932C87.4581 234.932 88.4126 234.784 89.2649 234.489C90.1286 234.182 90.8729 233.727 91.4979 233.125C92.1229 232.511 92.6058 231.75 92.9467 230.841L96.8331 231.932C96.424 233.25 95.7365 234.409 94.7706 235.409C93.8047 236.398 92.6115 237.17 91.1911 237.727C89.7706 238.273 88.174 238.545 86.4013 238.545ZM111.066 238.614C109.407 238.614 107.901 238.301 106.549 237.676C105.197 237.04 104.123 236.125 103.327 234.932C102.532 233.727 102.134 232.273 102.134 230.568C102.134 229.068 102.43 227.852 103.021 226.92C103.612 225.977 104.401 225.239 105.39 224.705C106.379 224.17 107.469 223.773 108.663 223.511C109.867 223.239 111.077 223.023 112.293 222.864C113.884 222.659 115.174 222.506 116.163 222.403C117.163 222.29 117.89 222.102 118.344 221.841C118.81 221.58 119.043 221.125 119.043 220.477V220.341C119.043 218.659 118.583 217.352 117.663 216.42C116.754 215.489 115.373 215.023 113.521 215.023C111.6 215.023 110.094 215.443 109.004 216.284C107.913 217.125 107.146 218.023 106.702 218.977L102.884 217.614C103.566 216.023 104.475 214.784 105.612 213.898C106.759 213 108.009 212.375 109.362 212.023C110.725 211.659 112.066 211.477 113.384 211.477C114.225 211.477 115.191 211.58 116.282 211.784C117.384 211.977 118.447 212.381 119.469 212.994C120.504 213.608 121.362 214.534 122.043 215.773C122.725 217.011 123.066 218.67 123.066 220.75V238H119.043V234.455H118.839C118.566 235.023 118.112 235.631 117.475 236.278C116.839 236.926 115.992 237.477 114.935 237.932C113.879 238.386 112.589 238.614 111.066 238.614ZM111.68 235C113.271 235 114.612 234.688 115.702 234.062C116.805 233.438 117.634 232.631 118.191 231.642C118.759 230.653 119.043 229.614 119.043 228.523V224.841C118.873 225.045 118.498 225.233 117.918 225.403C117.35 225.562 116.691 225.705 115.941 225.83C115.202 225.943 114.481 226.045 113.776 226.136C113.083 226.216 112.521 226.284 112.089 226.341C111.043 226.477 110.066 226.699 109.157 227.006C108.259 227.301 107.532 227.75 106.975 228.352C106.43 228.943 106.157 229.75 106.157 230.773C106.157 232.17 106.674 233.227 107.708 233.943C108.754 234.648 110.077 235 111.68 235ZM140.295 238.545C138.113 238.545 136.187 237.994 134.516 236.892C132.846 235.778 131.539 234.21 130.596 232.188C129.653 230.153 129.181 227.75 129.181 224.977C129.181 222.227 129.653 219.841 130.596 217.818C131.539 215.795 132.852 214.233 134.533 213.131C136.215 212.028 138.158 211.477 140.363 211.477C142.067 211.477 143.414 211.761 144.403 212.33C145.403 212.886 146.164 213.523 146.687 214.239C147.221 214.943 147.636 215.523 147.931 215.977H148.272V203.091H152.295V238H148.408V233.977H147.931C147.636 234.455 147.215 235.057 146.67 235.784C146.124 236.5 145.346 237.142 144.335 237.71C143.323 238.267 141.977 238.545 140.295 238.545ZM140.84 234.932C142.454 234.932 143.817 234.511 144.931 233.67C146.045 232.818 146.891 231.642 147.471 230.142C148.05 228.631 148.34 226.886 148.34 224.909C148.34 222.955 148.056 221.244 147.488 219.778C146.92 218.301 146.079 217.153 144.965 216.335C143.852 215.506 142.477 215.091 140.84 215.091C139.136 215.091 137.715 215.528 136.579 216.403C135.454 217.267 134.607 218.443 134.039 219.932C133.482 221.409 133.204 223.068 133.204 224.909C133.204 226.773 133.488 228.466 134.056 229.989C134.636 231.5 135.488 232.705 136.613 233.602C137.749 234.489 139.158 234.932 140.84 234.932Z" fill="#333333"/>
</svg>
